<?xml version="1.0" encoding="UTF-8"?>
<svg xmlns="http://www.w3.org/2000/svg" xmlns:xlink="http://www.w3.org/1999/xlink" width="360pt" height="178pt" viewBox="0 0 360 178" version="1.1">
<g id="surface196">
<path style=" stroke:none;fill-rule:evenodd;fill:rgb(19.000244%,64.99939%,79.998779%);fill-opacity:1;" d="M 24.410156 41.355469 C 19.839844 41.355469 15.457031 43.171875 12.226562 46.402344 C 8.996094 49.636719 7.179688 54.019531 7.179688 58.589844 L 7.179688 153.363281 C 7.179688 157.933594 8.996094 162.316406 12.226562 165.550781 C 15.457031 168.78125 19.839844 170.597656 24.410156 170.597656 L 334.589844 170.597656 C 339.160156 170.597656 343.542969 168.78125 346.773438 165.550781 C 350.003906 162.316406 351.820312 157.933594 351.820312 153.363281 L 351.820312 58.589844 C 351.820312 54.019531 350.003906 49.636719 346.773438 46.402344 C 343.542969 43.171875 339.160156 41.355469 334.589844 41.355469 Z M 24.410156 41.355469 "/>
<path style=" stroke:none;fill-rule:evenodd;fill:rgb(86.997986%,47.999573%,58.999634%);fill-opacity:1;" d="M 67.492188 41.355469 C 62.921875 41.355469 58.539062 43.171875 55.308594 46.402344 C 52.074219 49.636719 50.261719 54.019531 50.261719 58.589844 L 50.261719 67.203125 C 50.261719 71.773438 52.074219 76.15625 55.308594 79.390625 C 58.539062 82.621094 62.921875 84.4375 67.492188 84.4375 L 119.1875 84.4375 C 123.757812 84.4375 128.140625 82.621094 131.371094 79.390625 C 134.605469 76.15625 136.421875 71.773438 136.421875 67.203125 L 136.421875 58.589844 C 136.421875 54.019531 134.605469 49.636719 131.371094 46.402344 C 128.140625 43.171875 123.757812 41.355469 119.1875 41.355469 Z M 67.492188 41.355469 "/>
<path style=" stroke:none;fill-rule:evenodd;fill:rgb(86.997986%,47.999573%,58.999634%);fill-opacity:1;" d="M 239.8125 41.355469 C 235.242188 41.355469 230.859375 43.171875 227.628906 46.402344 C 224.394531 49.636719 222.578125 54.019531 222.578125 58.589844 L 222.578125 67.203125 C 222.578125 71.773438 224.394531 76.15625 227.628906 79.390625 C 230.859375 82.621094 235.242188 84.4375 239.8125 84.4375 L 291.507812 84.4375 C 296.078125 84.4375 300.460938 82.621094 303.691406 79.390625 C 306.925781 76.15625 308.738281 71.773438 308.738281 67.203125 L 308.738281 58.589844 C 308.738281 54.019531 306.925781 49.636719 303.691406 46.402344 C 300.460938 43.171875 296.078125 41.355469 291.507812 41.355469 Z M 239.8125 41.355469 "/>
<path style="fill-rule:nonzero;fill:rgb(86.997986%,47.999573%,58.999634%);fill-opacity:1;stroke-width:1;stroke-linecap:square;stroke-linejoin:miter;stroke:rgb(86.997986%,47.999573%,58.999634%);stroke-opacity:1;stroke-miterlimit:3.239307;" d="M 288.578125 72.203125 L 288.578125 47.21875 L 374.738281 47.21875 L 374.738281 72.203125 Z M 288.578125 72.203125 " transform="matrix(1,0,0,1,-66,-5)"/>
<path style="fill-rule:nonzero;fill:rgb(86.997986%,47.999573%,58.999634%);fill-opacity:1;stroke-width:1;stroke-linecap:square;stroke-linejoin:miter;stroke:rgb(86.997986%,47.999573%,58.999634%);stroke-opacity:1;stroke-miterlimit:3.239307;" d="M 116.261719 72.203125 L 116.261719 47.21875 L 202.421875 47.21875 L 202.421875 72.203125 Z M 116.261719 72.203125 " transform="matrix(1,0,0,1,-66,-5)"/>
<path style="fill-rule:nonzero;fill:rgb(79.998779%,92.999268%,85.998535%);fill-opacity:1;stroke-width:1;stroke-linecap:square;stroke-linejoin:miter;stroke:rgb(79.998779%,92.999268%,85.998535%);stroke-opacity:1;stroke-miterlimit:3.239307;" d="M 185.1875 46.355469 L 185.1875 29.125 L 305.8125 29.125 L 305.8125 46.355469 Z M 185.1875 46.355469 " transform="matrix(1,0,0,1,-66,-5)"/>
<path style="fill-rule:nonzero;fill:rgb(0%,0%,0%);fill-opacity:1;stroke-width:1;stroke-linecap:square;stroke-linejoin:miter;stroke:rgb(0%,0%,0%);stroke-opacity:1;stroke-miterlimit:3.239307;" d="M 185.1875 29.125 L 185.1875 11.894531 L 305.8125 11.894531 L 305.8125 29.125 Z M 185.1875 29.125 " transform="matrix(1,0,0,1,-66,-5)"/>
</g>
</svg>
